<svg xmlns="http://www.w3.org/2000/svg" viewBox="0 0 403.12 371.64"><defs><style>.cls-1{fill:#494949;}</style></defs><g id="图层_2" data-name="图层 2"><g id="图层_1-2" data-name="图层 1"><path class="cls-1" d="M206.79,338.16H134.24c0-5.18.41-10.25-.12-15.21A61.65,61.65,0,0,0,131,308.74a50.42,50.42,0,0,0-20.43-26c-17.12-11.05-34.72-11.26-52.26-1.67A49.67,49.67,0,0,0,38,302.59a53.54,53.54,0,0,0-5.88,28.83,7.67,7.67,0,0,1-.16,1,59.56,59.56,0,0,1-5.86-3.58C10.53,316.76,2.2,300.76.33,281.25a68.37,68.37,0,0,1,4.79-32.86,64.1,64.1,0,0,1,10.63-17.55c4.59-5.35,10-9.4,16-13.18,7.61-4.86,15.88-6.63,24.58-7.42a3.51,3.51,0,0,0,.74-.32v-3q0-45,0-90.08a119.44,119.44,0,0,1,8.12-44.44,110.91,110.91,0,0,1,14.6-26.68A127.4,127.4,0,0,1,102,22.93c5.28-4.21,11.19-7.17,17-10.52,11-6.43,23.17-8.92,35.48-11,1.47-.24,3-.31,4.45-.43C163.4.63,168-.2,172.43,0c6.58.37,13.12,1.38,19.65,2.34a80.84,80.84,0,0,1,23.75,6.88,148.4,148.4,0,0,1,20.86,11.8A101.57,101.57,0,0,1,259,42.69C270,57.12,277.86,73,280.92,91c1.39,8.14,2.69,16.41,2.78,24.64.34,30.27.16,60.55.17,90.82v3c6,1,11.66,1.6,17.19,2.84,9.65,2.17,17.51,7.78,24.38,14.53,3.81,3.75,6.57,8.6,9.65,13.06a3.86,3.86,0,0,0,3.53,1.95c3.93.16,8,.27,11.71,1.46,10.56,3.37,16.55,11.08,18.6,21.82,1.93,10.1-.26,19-7.36,26.87-5.71,6.31-12.59,9-20.81,9.24a2.59,2.59,0,0,0-1.94,1.31,56.36,56.36,0,0,1-11,18.09c-4.52,5.09-9.67,9.49-16,12.28-1,.46-2.1.87-3.47,1.43,0-3,.17-5.73,0-8.41-.83-11.25-3.81-21.7-10.83-30.88a52.36,52.36,0,0,0-13.08-12.3c-16.9-11-34.6-11.54-51.81-1.91-14.33,8-22.93,21-25.78,37.5a50.93,50.93,0,0,0-.16,17.8A19.84,19.84,0,0,1,206.79,338.16ZM181,38.59V210h71.7c.06-.68.14-1.16.14-1.65,0-29.44.06-58.88,0-88.32a87,87,0,0,0-12.59-45.58A71.79,71.79,0,0,0,220.37,52.9,101.32,101.32,0,0,0,202.73,43C196,40.05,188.59,39.13,181,38.59ZM342.62,293.31c12.07-2.25,20.21-10.57,19.18-23.86-1-13-11.11-19.72-19.18-19.06Z"/><path class="cls-1" d="M81.38,285.24c9.89-.12,17.56,1.84,24.21,6.61,11.62,8.34,18,19.75,18.66,34.14.52,11.54-2.45,22-10.34,30.69a44.91,44.91,0,0,1-7.74,7.18c-10.74,7.27-22.45,10.12-35,5.6-6.42-2.31-12.61-5.6-17.21-10.84C43.13,346.26,39.27,332.06,43.78,316a44.14,44.14,0,0,1,14.46-22A36.71,36.71,0,0,1,81.38,285.24ZM63.75,356.53a19.4,19.4,0,0,0,1.62-1.38q9.39-9.86,18.75-19.72c5.53-5.79,11.12-11.54,16.65-17.34,3.22-3.4,6.37-6.87,9.8-10.56l-3.77-3.87L60.06,353Zm-10.4-13c.92,1.76,1.79,3.46,2.84,5.48,1.14-1.43,1.87-2.52,2.76-3.46q10.36-11,20.78-21.89c5.42-5.67,10.89-11.3,16.29-17,2.19-2.31,4.27-4.72,6.5-7.2-.76-.53-1.39-.9-2-1.37-1.83-1.52-3.27-1.21-4.73.64-1.63,2.07-3.43,4-5.24,5.9Q79.86,316,69.08,327.23C63.89,332.65,58.66,338,53.35,343.54Zm15.77,16.28c4.19,2.78,5,2.73,8.26-.53.86-.87,1.54-1.92,2.38-2.81q10.47-11.06,21-22.09c4.5-4.73,9-9.42,13.49-14.2a3,3,0,0,0,.79-2.3,34.8,34.8,0,0,0-1.65-4.73Zm23.09-65.53c-1.15-.28-1.86-.4-2.55-.62-2.38-.76-4.22-.45-6,1.69-2.7,3.32-5.78,6.33-8.76,9.42-5.68,5.89-11.41,11.73-17.09,17.62q-3.61,3.74-7.06,7.61a3.25,3.25,0,0,0-.77,2.17c.13,1.77.54,3.53.88,5.61ZM116.53,327l-.82-.73a16.16,16.16,0,0,1-1.45,2.29c-2.87,3.19-5.75,6.36-8.71,9.46-5.88,6.15-11.84,12.21-17.72,18.36-2,2.09-3.85,4.31-5.8,6.52,4.88,1,8.71-.24,11.5-4.19a19.11,19.11,0,0,1,1.64-2.13c5.72-6,11.36-12,17.23-17.8C115.77,335.39,117.26,331.63,116.53,327Zm-39.62-32.9c-10.16-.66-27.08,17-26,27.28Z"/><path class="cls-1" d="M257.06,285.13c8.18,0,15.85,1.93,22.44,6.82,9.74,7.22,16,16.78,17.86,28.92,2,13.18-.81,25.06-9.29,35.59-4.3,5.33-9.75,8.66-15.79,11.59a33,33,0,0,1-24.54,2.17c-13.72-4.14-24-12.74-28.93-26.55-4.92-13.64-3.76-26.77,4.08-39.22,6.48-10.28,15.44-16.76,27.49-18.74C252.58,285.35,254.83,285.32,257.06,285.13Zm-16.23,74c.8-1,1.38-1.91,2.1-2.67q10.42-10.93,20.89-21.84,9-9.28,17.94-18.54a14.29,14.29,0,0,0,1.56-1.91c.86-1.27,2.46-2.7,2.29-3.85-.23-1.51-1.86-2.82-2.9-4.21,0-.05-.15-.05-.54-.16L235.9,354.79Zm-9.17-8.46c15.73-16.58,31.31-33,47.11-49.69l-5.43-3.65c-2.32,2.57-4.42,5-6.62,7.31q-10.25,10.92-20.55,21.76-7.17,7.55-14.41,15C227.62,345.66,227.59,345.64,231.66,350.66Zm15.14,10.5c4.3,2.55,6.77,2.32,9.79-.86,4.87-5.14,9.65-10.37,14.54-15.49,5.83-6.09,11.75-12.09,17.57-18.17a3.59,3.59,0,0,0,1.12-2.31c-.13-2.31-.56-4.61-1-7.54Zm-21.48-21.63,42.36-44.64c-1.29-.38-2.4-.63-3.45-1-2.39-.92-4-.27-5.81,1.69-6.14,6.78-12.52,13.35-18.83,20-4.79,5-9.63,10-14.42,15-.54.57-1.32,1.37-1.25,2C224.2,334.74,224.78,337,225.32,339.53Zm37.23,22.9c12.25-.19,27.25-16.1,27.15-28.79Zm-10.62-68.81c-11.49-.38-28.61,17.66-27.44,29Z"/><path class="cls-1" d="M390.38,268.51h9.67c1.84,0,3.06.76,3.07,2.75s-1.27,2.64-2.92,2.66c-6.37.07-12.73.07-19.1.05a2.47,2.47,0,0,1-2.69-2.84c0-1.84.95-2.7,2.79-2.68,3.06,0,6.12,0,9.18,0Z"/><path class="cls-1" d="M394.42,301.25c-.65,1.1-1,2.38-1.76,2.72s-1.89-.33-2.7-.81c-3.9-2.34-7.79-4.69-11.59-7.18a21.84,21.84,0,0,1-4.45-3.79c-.54-.62-.71-2.39-.25-2.86s2-.49,3-.51c.44,0,.91.37,1.32.64,4.88,3.23,9.76,6.44,14.6,9.72A11.69,11.69,0,0,1,394.42,301.25Z"/><path class="cls-1" d="M375.87,254.18c-2.52-.07-3.48-1.82-2.25-3.58a11,11,0,0,1,2.72-2.76c4.73-3.16,9.5-6.24,14.35-9.21a2.39,2.39,0,0,1,2.25.7,4.64,4.64,0,0,1,.44,3c-.09.55-1,1-1.64,1.42-4.65,3.23-9.31,6.46-14,9.65A8.43,8.43,0,0,1,375.87,254.18Z"/></g></g></svg>