<svg xmlns="http://www.w3.org/2000/svg" viewBox="0 0 26.87 22.31"><g id="图层_2" data-name="图层 2"><g id="图层_01" data-name="图层 01"><path d="M24,19.51l.34,0a1.86,1.86,0,0,0,.34-.07,1.59,1.59,0,0,0,.33-.1,1.87,1.87,0,0,0,.32-.15,1.75,1.75,0,0,0,.29-.18l.27-.22.24-.25a2.83,2.83,0,0,0,.2-.28c.06-.1.12-.2.17-.3a2.15,2.15,0,0,0,.13-.32,1.89,1.89,0,0,0,.09-.34c0-.11,0-.22.05-.34a1.93,1.93,0,0,0,0-.34,2,2,0,0,0,0-.35,2.37,2.37,0,0,0-.08-.34,2.08,2.08,0,0,0-.12-.32c-.05-.1-.1-.21-.16-.31l-.2-.28c-.07-.09-.15-.17-.23-.26a2.75,2.75,0,0,0-.26-.22,1.81,1.81,0,0,0-.29-.19l-.31-.16-.33-.11a1.94,1.94,0,0,0-.33-.07l-.35,0H17.15c-.12,0-.23,0-.35,0h-.35c-.11,0-.2,0-.24.11a1.09,1.09,0,0,0,0,.34,1.86,1.86,0,0,1-.07.34l-.12.32a3,3,0,0,1-.16.31,2.9,2.9,0,0,1-.19.29,2.85,2.85,0,0,1-.23.26,2.73,2.73,0,0,1-.25.23l-.29.2-.31.16a1.75,1.75,0,0,1-.32.12,3,3,0,0,1-.68.12,1.93,1.93,0,0,1-.34,0,2.11,2.11,0,0,1-.35-.05,2,2,0,0,1-.33-.09,1.75,1.75,0,0,1-.32-.12,3.07,3.07,0,0,1-.31-.17l-.28-.2-.25-.24a2,2,0,0,1-.22-.27,2.9,2.9,0,0,1-.19-.29,1.77,1.77,0,0,1-.15-.31c0-.11-.08-.22-.11-.33a1.14,1.14,0,0,1-.07-.34c0-.12,0-.27,0-.34s-.18-.05-.3-.05A1.93,1.93,0,0,1,10,14H6.84a2,2,0,0,1-.34,0l-.33-.09-.32-.14a2.14,2.14,0,0,1-.3-.17l-.28-.21L5,13l-.21-.27a2.38,2.38,0,0,1-.18-.3,3.09,3.09,0,0,1-.14-.32,1.59,1.59,0,0,1-.1-.33,1.86,1.86,0,0,1-.06-.34,1.94,1.94,0,0,1,0-.34,3,3,0,0,1,.1-.69,1.73,1.73,0,0,1,.11-.32,1.87,1.87,0,0,1,.15-.32c0-.1.12-.19.18-.29a2.8,2.8,0,0,1,.76-.7l.31-.16.32-.13a2,2,0,0,1,.33-.08,2.11,2.11,0,0,1,.35,0h3.46a.27.27,0,0,1,.23.12,1.65,1.65,0,0,1,0,.34,1.69,1.69,0,0,0,.08.34c0,.11.07.22.12.33s.1.2.16.3a2.9,2.9,0,0,0,.19.29c.08.09.15.18.23.26l.26.23a2.9,2.9,0,0,0,.29.19l.31.16a1.75,1.75,0,0,0,.32.12l.34.08.34,0h.35a2,2,0,0,0,.34,0l.33-.09.32-.13a3.07,3.07,0,0,0,.31-.17,2.69,2.69,0,0,0,.27-.2l.26-.24.22-.27.18-.29A2.2,2.2,0,0,0,16,9.44c0-.11.07-.23.11-.33a1.21,1.21,0,0,0,.06-.34c0-.13,0-.28,0-.35s.19,0,.32,0h6.23l.35,0a2,2,0,0,0,.34,0l.34-.07.33-.11L24.44,8l.3-.16.3-.18.28-.21.26-.23L25.82,7,26,6.71l.2-.28c.06-.1.12-.2.17-.3l.15-.32.12-.32.09-.34a3.43,3.43,0,0,0,.06-.34c0-.11,0-.23,0-.34s0-.23,0-.35,0-.23,0-.34,0-.23-.05-.34a3.38,3.38,0,0,0-.08-.34c0-.11-.07-.22-.1-.33a3.09,3.09,0,0,0-.14-.32,3,3,0,0,0-.15-.31,2.9,2.9,0,0,0-.19-.29,3.32,3.32,0,0,0-.43-.54,1.88,1.88,0,0,0-.25-.24L25.19.85a2.83,2.83,0,0,0-.28-.2l-.3-.17L24.29.33,24,.21,23.64.12,23.3.05c-.12,0-.23,0-.35,0H12.22c-.11,0-.21,0-.25.1a1.16,1.16,0,0,0,0,.34,1.21,1.21,0,0,1-.08.34,1.75,1.75,0,0,1-.12.32,1.77,1.77,0,0,1-.15.31,2.9,2.9,0,0,1-.19.29c-.08.09-.15.18-.23.26l-.26.23a2.83,2.83,0,0,1-.28.2l-.31.16a2.08,2.08,0,0,1-.32.12c-.11,0-.23.06-.34.09a2,2,0,0,1-.34,0A2,2,0,0,1,9,2.8a2,2,0,0,1-.34,0l-.34-.08L8,2.54l-.3-.17a2.83,2.83,0,0,1-.28-.2,1.9,1.9,0,0,1-.25-.24,2.85,2.85,0,0,1-.23-.26c-.06-.1-.13-.19-.18-.29a2.3,2.3,0,0,1-.15-.32A2,2,0,0,1,6.47.74,1,1,0,0,1,6.4.4c0-.13,0-.28,0-.35s-.18,0-.3,0H4L3.65,0,3.31.1,3,.19,2.64.3,2.33.44,2,.61,1.74.8,1.46,1l-.25.23c-.08.09-.16.17-.23.26a2.47,2.47,0,0,0-.21.27l-.19.29c-.06.1-.11.21-.16.31a3.09,3.09,0,0,0-.14.32c0,.11-.08.22-.11.33s-.06.22-.08.33A2.21,2.21,0,0,0,0,3.7l0,.35V15.48l0,.34a2,2,0,0,0,.06.34c0,.11.05.23.08.34s.07.22.11.33.09.21.14.31a3,3,0,0,0,.16.31l.19.29L1,18a3,3,0,0,0,.24.26,2.73,2.73,0,0,0,.25.23l.27.22.29.19.3.16.32.15.33.11.33.09.34.06.35,0H6.08c.11,0,.24,0,.29,0s0,.22,0,.35a.94.94,0,0,0,.07.34c0,.11.07.22.11.33a2.2,2.2,0,0,0,.15.31l.19.29a2.75,2.75,0,0,0,.22.26c.08.09.17.16.25.24l.28.2a3.07,3.07,0,0,0,.31.17,1.75,1.75,0,0,0,.32.12l.33.09.35,0h.34l.35,0,.33-.08.33-.13a2.19,2.19,0,0,0,.3-.16l.29-.2a2.73,2.73,0,0,0,.25-.23,2.85,2.85,0,0,0,.23-.26,2.9,2.9,0,0,0,.19-.29,3,3,0,0,0,.16-.31c0-.1.08-.22.11-.32a1.3,1.3,0,0,0,.08-.34,1.2,1.2,0,0,1,0-.35c0-.07.15-.09.26-.09H24Z"/></g></g></svg>